<svg width="198" height="198" viewBox="0 0 198 198" fill="none" xmlns="http://www.w3.org/2000/svg">
<path d="M88 98C88 153.228 43.2285 198 -12 198C-67.2285 198 -112 153.228 -112 98C-112 42.7715 -67.2285 -2 -12 -2C43.2285 -2 88 42.7715 88 98Z" fill="#8FE1D7" fill-opacity="0.44"/>
<circle cx="97.4134" cy="36" r="100" fill="#8FE1D7" fill-opacity="0.44"/>
<path d="M88 98C88 153.228 43.2285 198 -12 198C-67.2285 198 -112 153.228 -112 98C-112 42.7715 -67.2285 -2 -12 -2C43.2285 -2 88 42.7715 88 98Z" fill="#04D48B" fill-opacity="0.44"/>
<circle cx="97.4134" cy="36" r="100" fill="#04D48B" fill-opacity="0.44"/>
</svg>
